<?xml version="1.0" standalone="no"?>
<!DOCTYPE svg PUBLIC "-//W3C//DTD SVG 20010904//EN"
 "http://www.w3.org/TR/2001/REC-SVG-20010904/DTD/svg10.dtd">
<svg version="1.0" xmlns="http://www.w3.org/2000/svg"
 width="32.000000pt" height="32.000000pt" viewBox="0 0 256.000000 256.000000"
 preserveAspectRatio="xMidYMid meet">

<g transform="translate(0.000000,256.000000) scale(0.100000,-0.100000)"
fill="currentColor">
<path d="M601 2546 c-7 -8 -37 -79 -66 -158 -29 -78 -59 -145 -66 -149 -8 -4
-27 -12 -42 -18 -45 -18 -57 -62 -57 -210 0 -123 1 -131 22 -145 12 -9 41 -16
65 -16 l42 0 5 -52 c18 -184 18 -184 -10 -197 l-26 -11 7 -108 c47 -686 62
-864 76 -873 8 -5 296 -9 677 -9 l662 0 0 -27 c0 -16 -7 -108 -15 -205 -15
-196 -27 -235 -80 -268 -31 -19 -49 -20 -515 -20 -441 0 -484 1 -512 17 -56
34 -69 69 -80 225 -6 79 -15 149 -20 156 -13 16 -43 16 -56 -1 -13 -15 2 -255
20 -322 13 -53 89 -129 143 -144 55 -15 955 -15 1010 0 52 14 130 94 144 146
5 21 15 110 21 198 16 235 17 242 44 249 14 3 26 16 29 28 10 43 41 574 34
591 -7 19 -52 23 -63 5 -6 -10 -42 -444 -44 -525 l0 -23 -669 0 -669 0 -7 62
c-5 55 -55 760 -55 780 0 5 328 8 730 8 l729 0 -6 -84 c-5 -77 -4 -85 15 -95
16 -8 24 -7 40 7 17 14 21 34 27 124 l7 108 -26 11 c-28 13 -28 13 -10 197 l5
52 42 0 c24 0 53 7 65 16 21 14 22 22 22 145 0 148 -12 192 -57 210 -15 6 -34
14 -42 18 -7 3 -31 53 -52 111 -22 58 -44 109 -49 114 -15 15 -1041 78 -1057
65 -18 -16 -17 -56 3 -63 8 -3 158 -15 332 -26 525 -34 584 -38 592 -47 4 -4
19 -41 33 -80 l27 -73 -675 0 c-371 0 -675 3 -675 6 0 3 19 57 42 120 l42 115
68 -7 c72 -7 98 2 98 36 0 29 -21 37 -116 45 -75 6 -92 4 -103 -9z m1419 -501
l0 -115 -785 0 -785 0 0 103 c0 67 4 107 12 115 9 9 197 12 785 12 l773 0 0
-115z m-44 -272 c-3 -42 -6 -96 -6 -120 l0 -43 -690 0 -690 0 0 38 c0 20 -3
74 -7 120 l-6 82 703 0 703 0 -7 -77z"/>
<path d="M1163 1360 c-39 -22 -61 -44 -83 -83 -29 -50 -30 -57 -30 -171 0
-101 3 -126 21 -163 45 -92 156 -146 256 -123 67 15 129 61 160 119 20 39 23
58 23 165 0 116 -1 123 -30 173 -43 75 -111 113 -200 113 -54 0 -74 -5 -117
-30z m178 -142 c5 -18 9 -58 9 -88 l-1 -55 -34 55 c-26 40 -35 65 -35 96 0 66
8 79 32 49 11 -14 24 -40 29 -57z m-147 34 c-8 -51 8 -106 51 -172 39 -60 47
-129 21 -166 -15 -19 -15 -19 -53 1 -20 11 -48 35 -60 54 -20 30 -23 46 -23
133 0 55 5 109 11 121 11 21 49 67 56 67 2 0 1 -17 -3 -38z"/>
</g>
</svg>
